<mxfile host="app.diagrams.net" modified="2021-12-02T17:40:48.389Z" agent="5.0 (Windows NT 10.0; Win64; x64) AppleWebKit/537.36 (KHTML, like Gecko) Chrome/96.0.4664.45 Safari/537.36" etag="PnydBiWs5IcdS-LhnxLN" version="15.8.8" type="github">
  <diagram id="6sDmoBsWyCEGh8KONus7" name="Page-1">
    <mxGraphModel dx="981" dy="486" grid="1" gridSize="10" guides="1" tooltips="1" connect="1" arrows="1" fold="1" page="1" pageScale="1" pageWidth="850" pageHeight="1100" math="0" shadow="0">
      <root>
        <mxCell id="0" />
        <mxCell id="1" parent="0" />
        <mxCell id="sXUca3XhTpz1nwxdPzJH-1" value="" style="rounded=0;whiteSpace=wrap;html=1;" vertex="1" parent="1">
          <mxGeometry x="240" y="120" width="370" height="280" as="geometry" />
        </mxCell>
        <mxCell id="sXUca3XhTpz1nwxdPzJH-3" value="" style="rounded=0;whiteSpace=wrap;html=1;" vertex="1" parent="1">
          <mxGeometry x="250" y="130" width="350" height="260" as="geometry" />
        </mxCell>
        <mxCell id="sXUca3XhTpz1nwxdPzJH-4" value="" style="endArrow=none;html=1;rounded=0;entryX=0.997;entryY=0.119;entryDx=0;entryDy=0;entryPerimeter=0;exitX=0.003;exitY=0.119;exitDx=0;exitDy=0;exitPerimeter=0;" edge="1" parent="1" source="sXUca3XhTpz1nwxdPzJH-3" target="sXUca3XhTpz1nwxdPzJH-3">
          <mxGeometry width="50" height="50" relative="1" as="geometry">
            <mxPoint x="400" y="390" as="sourcePoint" />
            <mxPoint x="450" y="340" as="targetPoint" />
          </mxGeometry>
        </mxCell>
        <mxCell id="sXUca3XhTpz1nwxdPzJH-5" value="Sign In" style="text;html=1;align=center;verticalAlign=middle;resizable=0;points=[];autosize=1;strokeColor=none;fillColor=none;fontSize=20;" vertex="1" parent="1">
          <mxGeometry x="380" y="130" width="80" height="30" as="geometry" />
        </mxCell>
        <mxCell id="sXUca3XhTpz1nwxdPzJH-6" value="&lt;font color=&quot;#b3b3b3&quot;&gt;idpengguna&lt;/font&gt;" style="rounded=0;whiteSpace=wrap;html=1;fontSize=20;align=left;spacingLeft=10;" vertex="1" parent="1">
          <mxGeometry x="280" y="200" width="280" height="40" as="geometry" />
        </mxCell>
        <mxCell id="sXUca3XhTpz1nwxdPzJH-8" value="&lt;font color=&quot;#b3b3b3&quot;&gt;password&lt;/font&gt;" style="rounded=0;whiteSpace=wrap;html=1;fontSize=20;align=left;spacingLeft=10;" vertex="1" parent="1">
          <mxGeometry x="280" y="260" width="280" height="40" as="geometry" />
        </mxCell>
        <mxCell id="sXUca3XhTpz1nwxdPzJH-9" value="&lt;font style=&quot;font-size: 16px&quot; color=&quot;#000000&quot;&gt;Log masuk&lt;/font&gt;" style="rounded=0;whiteSpace=wrap;html=1;fontSize=20;fontColor=#B3B3B3;" vertex="1" parent="1">
          <mxGeometry x="300" y="330" width="100" height="40" as="geometry" />
        </mxCell>
        <mxCell id="sXUca3XhTpz1nwxdPzJH-11" value="&lt;font style=&quot;font-size: 16px&quot; color=&quot;#000000&quot;&gt;Daftar&lt;/font&gt;" style="rounded=0;whiteSpace=wrap;html=1;fontSize=20;fontColor=#B3B3B3;" vertex="1" parent="1">
          <mxGeometry x="440" y="330" width="100" height="40" as="geometry" />
        </mxCell>
      </root>
    </mxGraphModel>
  </diagram>
</mxfile>
